<svg xmlns="http://www.w3.org/2000/svg" width="375" viewBox="0 0 375 375" height="375" version="1.0"><path fill="#AF4A47" d="M 18.144531 102.824219 L 18.144531 54.433594 L 211.695312 54.433594 L 211.695312 102.824219"/><path fill="#E4725F" d="M 18.144531 54.433594 L 42.339844 78.628906 L 18.144531 102.824219"/><path fill="#E4725F" d="M 211.695312 54.433594 L 187.5 78.628906 L 211.695312 102.824219"/><path fill="#AF4A47" d="M 223.789062 326.613281 L 223.789062 102.824219 L 6.046875 102.824219 L 6.046875 326.613281"/><path fill="#E4725F" d="M 6.046875 261.894531 C 18.628906 264.652344 31.796875 266.128906 45.363281 266.128906 C 133.886719 266.128906 205.644531 203.847656 205.644531 127.015625 C 205.644531 118.761719 204.769531 110.683594 203.175781 102.824219 L 6.046875 102.824219 Z M 6.046875 261.894531"/><path fill="#AF4A47" d="M 84.675781 151.210938 C 84.675781 151.804688 84.648438 152.398438 84.589844 152.988281 C 84.53125 153.578125 84.445312 154.167969 84.328125 154.75 C 84.210938 155.332031 84.070312 155.910156 83.894531 156.476562 C 83.722656 157.046875 83.523438 157.605469 83.296875 158.152344 C 83.070312 158.703125 82.816406 159.238281 82.535156 159.761719 C 82.253906 160.289062 81.949219 160.796875 81.621094 161.289062 C 81.289062 161.785156 80.9375 162.261719 80.558594 162.722656 C 80.183594 163.179688 79.78125 163.621094 79.363281 164.039062 C 78.941406 164.460938 78.503906 164.859375 78.042969 165.234375 C 77.585938 165.613281 77.105469 165.964844 76.613281 166.296875 C 76.117188 166.628906 75.609375 166.933594 75.085938 167.210938 C 74.5625 167.492188 74.023438 167.746094 73.476562 167.972656 C 72.925781 168.199219 72.367188 168.402344 71.800781 168.574219 C 71.230469 168.746094 70.65625 168.890625 70.070312 169.007812 C 69.488281 169.121094 68.902344 169.210938 68.3125 169.265625 C 67.71875 169.324219 67.125 169.355469 66.53125 169.355469 C 65.9375 169.355469 65.34375 169.324219 64.753906 169.265625 C 64.164062 169.210938 63.574219 169.121094 62.992188 169.007812 C 62.410156 168.890625 61.832031 168.746094 61.265625 168.574219 C 60.695312 168.402344 60.136719 168.199219 59.589844 167.972656 C 59.039062 167.746094 58.503906 167.492188 57.980469 167.210938 C 57.453125 166.933594 56.945312 166.628906 56.453125 166.296875 C 55.957031 165.964844 55.480469 165.613281 55.019531 165.234375 C 54.5625 164.859375 54.121094 164.460938 53.703125 164.039062 C 53.28125 163.621094 52.882812 163.179688 52.503906 162.722656 C 52.128906 162.261719 51.773438 161.785156 51.445312 161.289062 C 51.113281 160.796875 50.808594 160.289062 50.53125 159.761719 C 50.25 159.238281 49.996094 158.703125 49.769531 158.152344 C 49.539062 157.605469 49.339844 157.046875 49.167969 156.476562 C 48.996094 155.910156 48.851562 155.332031 48.734375 154.75 C 48.621094 154.167969 48.53125 153.578125 48.472656 152.988281 C 48.417969 152.398438 48.386719 151.804688 48.386719 151.210938 C 48.386719 150.617188 48.417969 150.023438 48.472656 149.429688 C 48.53125 148.839844 48.621094 148.253906 48.734375 147.667969 C 48.851562 147.085938 48.996094 146.511719 49.167969 145.941406 C 49.339844 145.375 49.539062 144.816406 49.769531 144.265625 C 49.996094 143.714844 50.25 143.179688 50.53125 142.65625 C 50.808594 142.132812 51.113281 141.621094 51.445312 141.128906 C 51.773438 140.632812 52.128906 140.15625 52.503906 139.699219 C 52.882812 139.238281 53.28125 138.800781 53.703125 138.378906 C 54.121094 137.957031 54.5625 137.558594 55.019531 137.183594 C 55.480469 136.804688 55.957031 136.453125 56.453125 136.121094 C 56.945312 135.792969 57.453125 135.488281 57.980469 135.207031 C 58.503906 134.925781 59.039062 134.671875 59.589844 134.445312 C 60.136719 134.21875 60.695312 134.019531 61.265625 133.847656 C 61.832031 133.671875 62.410156 133.527344 62.992188 133.414062 C 63.574219 133.296875 64.164062 133.210938 64.753906 133.152344 C 65.34375 133.09375 65.9375 133.066406 66.53125 133.066406 C 67.125 133.066406 67.71875 133.09375 68.3125 133.152344 C 68.902344 133.210938 69.488281 133.296875 70.070312 133.414062 C 70.65625 133.527344 71.230469 133.671875 71.800781 133.847656 C 72.367188 134.019531 72.925781 134.21875 73.476562 134.445312 C 74.023438 134.671875 74.5625 134.925781 75.085938 135.207031 C 75.609375 135.488281 76.117188 135.792969 76.613281 136.121094 C 77.105469 136.453125 77.585938 136.804688 78.042969 137.183594 C 78.503906 137.558594 78.941406 137.957031 79.363281 138.378906 C 79.78125 138.800781 80.183594 139.238281 80.558594 139.699219 C 80.9375 140.15625 81.289062 140.632812 81.621094 141.128906 C 81.949219 141.621094 82.253906 142.132812 82.535156 142.65625 C 82.816406 143.179688 83.070312 143.714844 83.296875 144.265625 C 83.523438 144.816406 83.722656 145.375 83.894531 145.941406 C 84.070312 146.511719 84.210938 147.085938 84.328125 147.667969 C 84.445312 148.253906 84.53125 148.839844 84.589844 149.429688 C 84.648438 150.023438 84.675781 150.617188 84.675781 151.210938 Z M 84.675781 151.210938"/><path fill="#AF4A47" d="M 181.453125 151.210938 C 181.453125 151.804688 181.421875 152.398438 181.363281 152.988281 C 181.304688 153.578125 181.21875 154.167969 181.101562 154.75 C 180.988281 155.332031 180.84375 155.910156 180.671875 156.476562 C 180.496094 157.046875 180.296875 157.605469 180.070312 158.152344 C 179.84375 158.703125 179.589844 159.238281 179.308594 159.761719 C 179.027344 160.289062 178.722656 160.796875 178.394531 161.289062 C 178.0625 161.785156 177.710938 162.261719 177.332031 162.722656 C 176.957031 163.179688 176.558594 163.621094 176.136719 164.039062 C 175.714844 164.460938 175.277344 164.859375 174.816406 165.234375 C 174.359375 165.613281 173.882812 165.964844 173.386719 166.296875 C 172.894531 166.628906 172.382812 166.933594 171.859375 167.210938 C 171.335938 167.492188 170.800781 167.746094 170.25 167.972656 C 169.703125 168.199219 169.140625 168.402344 168.574219 168.574219 C 168.003906 168.746094 167.429688 168.890625 166.847656 169.007812 C 166.261719 169.121094 165.675781 169.210938 165.085938 169.265625 C 164.492188 169.324219 163.902344 169.355469 163.304688 169.355469 C 162.710938 169.355469 162.121094 169.324219 161.527344 169.265625 C 160.9375 169.210938 160.347656 169.121094 159.765625 169.007812 C 159.183594 168.890625 158.609375 168.746094 158.039062 168.574219 C 157.46875 168.402344 156.910156 168.199219 156.363281 167.972656 C 155.8125 167.746094 155.277344 167.492188 154.753906 167.210938 C 154.230469 166.933594 153.71875 166.628906 153.226562 166.296875 C 152.730469 165.964844 152.253906 165.613281 151.796875 165.234375 C 151.335938 164.859375 150.894531 164.460938 150.476562 164.039062 C 150.054688 163.621094 149.65625 163.179688 149.28125 162.722656 C 148.902344 162.261719 148.550781 161.785156 148.21875 161.289062 C 147.890625 160.796875 147.582031 160.289062 147.304688 159.761719 C 147.023438 159.238281 146.769531 158.703125 146.542969 158.152344 C 146.316406 157.605469 146.113281 157.046875 145.941406 156.476562 C 145.769531 155.910156 145.625 155.332031 145.511719 154.75 C 145.394531 154.167969 145.308594 153.578125 145.25 152.988281 C 145.191406 152.398438 145.160156 151.804688 145.160156 151.210938 C 145.160156 150.617188 145.191406 150.023438 145.25 149.429688 C 145.308594 148.839844 145.394531 148.253906 145.511719 147.667969 C 145.625 147.085938 145.769531 146.511719 145.941406 145.941406 C 146.113281 145.375 146.316406 144.816406 146.542969 144.265625 C 146.769531 143.714844 147.023438 143.179688 147.304688 142.65625 C 147.582031 142.132812 147.890625 141.621094 148.21875 141.128906 C 148.550781 140.632812 148.902344 140.15625 149.28125 139.699219 C 149.65625 139.238281 150.054688 138.800781 150.476562 138.378906 C 150.894531 137.957031 151.335938 137.558594 151.796875 137.183594 C 152.253906 136.804688 152.730469 136.453125 153.226562 136.121094 C 153.71875 135.792969 154.230469 135.488281 154.753906 135.207031 C 155.277344 134.925781 155.8125 134.671875 156.363281 134.445312 C 156.910156 134.21875 157.46875 134.019531 158.039062 133.847656 C 158.609375 133.671875 159.183594 133.527344 159.765625 133.414062 C 160.347656 133.296875 160.9375 133.210938 161.527344 133.152344 C 162.121094 133.09375 162.710938 133.066406 163.304688 133.066406 C 163.902344 133.066406 164.492188 133.09375 165.085938 133.152344 C 165.675781 133.210938 166.261719 133.296875 166.847656 133.414062 C 167.429688 133.527344 168.003906 133.671875 168.574219 133.847656 C 169.140625 134.019531 169.703125 134.21875 170.25 134.445312 C 170.800781 134.671875 171.335938 134.925781 171.859375 135.207031 C 172.382812 135.488281 172.894531 135.792969 173.386719 136.121094 C 173.882812 136.453125 174.359375 136.804688 174.816406 137.183594 C 175.277344 137.558594 175.714844 137.957031 176.136719 138.378906 C 176.558594 138.800781 176.957031 139.238281 177.332031 139.699219 C 177.710938 140.15625 178.0625 140.632812 178.394531 141.128906 C 178.722656 141.621094 179.027344 142.132812 179.308594 142.65625 C 179.589844 143.179688 179.84375 143.714844 180.070312 144.265625 C 180.296875 144.816406 180.496094 145.375 180.671875 145.941406 C 180.84375 146.511719 180.988281 147.085938 181.101562 147.667969 C 181.21875 148.253906 181.304688 148.839844 181.363281 149.429688 C 181.421875 150.023438 181.453125 150.617188 181.453125 151.210938 Z M 181.453125 151.210938"/><path fill="#7ECB92" d="M 139.113281 241.933594 L 114.917969 241.933594 C 114.917969 215.214844 136.585938 193.546875 163.304688 193.546875 L 187.5 193.546875 C 187.5 220.269531 165.835938 241.933594 139.113281 241.933594 Z M 139.113281 241.933594"/><path fill="#7ECB92" d="M 90.726562 241.933594 L 114.917969 241.933594 C 114.917969 215.214844 93.253906 193.546875 66.53125 193.546875 L 42.339844 193.546875 C 42.339844 220.269531 64.003906 241.933594 90.726562 241.933594 Z M 90.726562 241.933594"/><path fill="#F5B953" d="M 368.953125 368.953125 L 320.566406 368.953125 L 320.566406 235.886719 L 368.953125 235.886719 Z M 368.953125 368.953125"/><path fill="#F9D18B" d="M 320.566406 356.855469 L 284.273438 356.855469 L 284.273438 235.886719 L 320.566406 235.886719 Z M 320.566406 356.855469"/><path fill="#F3C6B0" d="M 284.273438 344.757812 L 235.886719 344.757812 L 199.597656 368.953125 L 6.046875 326.613281 L 6.046875 320.566406 C 6.046875 307.203125 16.882812 296.371094 30.242188 296.371094 L 175.402344 296.371094 L 175.402344 294.796875 C 175.402344 291.914062 176.4375 289.117188 178.3125 286.921875 L 211.695312 247.984375 L 284.273438 247.984375"/><path fill="#DCB29C" d="M 187.5 320.566406 L 194.582031 320.566406 C 199.425781 320.566406 203.988281 318.675781 207.417969 315.246094 L 234.113281 288.550781 L 225.5625 279.996094 L 198.863281 306.695312 C 197.722656 307.839844 196.199219 308.46875 194.582031 308.46875 L 187.5 308.46875 C 184.167969 308.46875 181.453125 305.757812 181.453125 302.417969 L 181.453125 294.796875 C 181.453125 293.359375 181.964844 291.957031 182.910156 290.859375 L 214.476562 254.03125 L 284.273438 254.03125 L 284.273438 241.933594 L 211.695312 241.933594 C 209.925781 241.933594 208.253906 242.710938 207.101562 244.050781 L 173.722656 282.992188 C 170.902344 286.277344 169.355469 290.46875 169.355469 294.796875 L 169.355469 302.417969 C 169.355469 312.421875 177.496094 320.566406 187.5 320.566406 Z M 187.5 320.566406"/><path d="M 12.097656 326.613281 L 0 326.613281 L 0 102.824219 C 0 99.484375 2.703125 96.773438 6.046875 96.773438 L 223.789062 96.773438 C 227.136719 96.773438 229.839844 99.484375 229.839844 102.824219 L 229.839844 247.984375 L 217.742188 247.984375 L 217.742188 108.871094 L 12.097656 108.871094 Z M 12.097656 326.613281"/><path d="M 217.742188 102.824219 L 205.644531 102.824219 L 205.644531 60.484375 L 24.195312 60.484375 L 24.195312 102.824219 L 12.097656 102.824219 L 12.097656 54.433594 C 12.097656 51.097656 14.800781 48.386719 18.144531 48.386719 L 211.695312 48.386719 C 215.039062 48.386719 217.742188 51.097656 217.742188 54.433594 Z M 217.742188 102.824219"/><path d="M 22.421875 107.097656 L 13.867188 98.546875 L 33.785156 78.628906 L 13.867188 58.710938 L 22.421875 50.160156 L 46.613281 74.351562 C 48.980469 76.71875 48.980469 80.539062 46.613281 82.90625 Z M 22.421875 107.097656"/><path d="M 207.417969 107.097656 L 183.222656 82.90625 C 180.859375 80.539062 180.859375 76.71875 183.222656 74.351562 L 207.417969 50.160156 L 215.96875 58.710938 L 196.050781 78.628906 L 215.96875 98.546875 Z M 207.417969 107.097656"/><path d="M 66.53125 175.402344 C 53.191406 175.402344 42.339844 164.550781 42.339844 151.210938 C 42.339844 137.867188 53.191406 127.015625 66.53125 127.015625 C 79.875 127.015625 90.726562 137.867188 90.726562 151.210938 C 90.726562 164.550781 79.875 175.402344 66.53125 175.402344 Z M 66.53125 139.113281 C 59.859375 139.113281 54.433594 144.539062 54.433594 151.210938 C 54.433594 157.882812 59.859375 163.304688 66.53125 163.304688 C 73.203125 163.304688 78.628906 157.882812 78.628906 151.210938 C 78.628906 144.539062 73.203125 139.113281 66.53125 139.113281 Z M 66.53125 139.113281"/><path d="M 163.304688 175.402344 C 149.964844 175.402344 139.113281 164.550781 139.113281 151.210938 C 139.113281 137.867188 149.964844 127.015625 163.304688 127.015625 C 176.648438 127.015625 187.5 137.867188 187.5 151.210938 C 187.5 164.550781 176.648438 175.402344 163.304688 175.402344 Z M 163.304688 139.113281 C 156.636719 139.113281 151.210938 144.539062 151.210938 151.210938 C 151.210938 157.882812 156.636719 163.304688 163.304688 163.304688 C 169.976562 163.304688 175.402344 157.882812 175.402344 151.210938 C 175.402344 144.539062 169.976562 139.113281 163.304688 139.113281 Z M 163.304688 139.113281"/><path d="M 169.355469 151.210938 L 157.257812 151.210938 L 157.257812 54.433594 C 157.257812 31.089844 138.261719 12.097656 114.917969 12.097656 C 91.578125 12.097656 72.582031 31.089844 72.582031 54.433594 L 72.582031 151.210938 L 60.484375 151.210938 L 60.484375 54.433594 C 60.484375 24.421875 84.902344 0 114.917969 0 C 144.9375 0 169.355469 24.421875 169.355469 54.433594 Z M 169.355469 151.210938"/><path d="M 368.953125 375 L 320.566406 375 C 317.21875 375 314.515625 372.289062 314.515625 368.953125 L 314.515625 235.886719 C 314.515625 232.546875 317.21875 229.839844 320.566406 229.839844 L 368.953125 229.839844 C 372.296875 229.839844 375 232.546875 375 235.886719 L 375 368.953125 C 375 372.289062 372.296875 375 368.953125 375 Z M 326.613281 362.902344 L 362.902344 362.902344 L 362.902344 241.933594 L 326.613281 241.933594 Z M 326.613281 362.902344"/><path d="M 320.566406 362.902344 L 284.273438 362.902344 C 280.929688 362.902344 278.226562 360.195312 278.226562 356.855469 L 278.226562 235.886719 C 278.226562 232.546875 280.929688 229.839844 284.273438 229.839844 L 320.566406 229.839844 C 323.910156 229.839844 326.613281 232.546875 326.613281 235.886719 L 326.613281 356.855469 C 326.613281 360.195312 323.910156 362.902344 320.566406 362.902344 Z M 290.324219 350.804688 L 314.515625 350.804688 L 314.515625 241.933594 L 290.324219 241.933594 Z M 290.324219 350.804688"/><path d="M 194.589844 320.566406 L 187.5 320.566406 C 177.496094 320.566406 169.355469 312.421875 169.355469 302.417969 L 169.355469 294.796875 C 169.355469 290.472656 170.910156 286.277344 173.726562 282.992188 L 207.109375 244.050781 C 208.253906 242.703125 209.925781 241.933594 211.695312 241.933594 L 284.273438 241.933594 L 284.273438 254.03125 L 214.476562 254.03125 L 182.902344 290.859375 C 181.972656 291.960938 181.453125 293.351562 181.453125 294.796875 L 181.453125 302.417969 C 181.453125 305.753906 184.160156 308.46875 187.5 308.46875 L 194.589844 308.46875 C 196.179688 308.46875 197.738281 307.820312 198.863281 306.695312 L 225.5625 279.996094 L 234.113281 288.550781 L 207.417969 315.246094 C 203.992188 318.675781 199.433594 320.566406 194.589844 320.566406 Z M 194.589844 320.566406"/><path d="M 199.597656 375 C 199.167969 375 198.730469 374.953125 198.300781 374.859375 L 4.753906 332.523438 C 1.976562 331.910156 0 329.457031 0 326.613281 L 0 320.566406 C 0 303.890625 13.566406 290.324219 30.242188 290.324219 L 175.402344 290.324219 L 175.402344 302.417969 L 30.242188 302.417969 C 20.238281 302.417969 12.097656 310.558594 12.097656 320.566406 L 12.097656 321.742188 L 198.382812 362.492188 L 232.53125 339.726562 C 233.523438 339.066406 234.695312 338.710938 235.886719 338.710938 L 284.273438 338.710938 L 284.273438 350.804688 L 237.71875 350.804688 L 202.953125 373.984375 C 201.949219 374.648438 200.78125 375 199.597656 375 Z M 199.597656 375"/><path d="M 139.113281 247.984375 L 114.917969 247.984375 C 111.574219 247.984375 108.871094 245.273438 108.871094 241.933594 C 108.871094 211.921875 133.289062 187.5 163.304688 187.5 L 187.5 187.5 C 190.84375 187.5 193.546875 190.210938 193.546875 193.546875 C 193.546875 223.558594 169.132812 247.984375 139.113281 247.984375 Z M 121.398438 235.886719 L 139.113281 235.886719 C 160.410156 235.886719 178.078125 220.089844 181.023438 199.597656 L 163.304688 199.597656 C 142.011719 199.597656 124.34375 215.394531 121.398438 235.886719 Z M 121.398438 235.886719"/><path d="M 114.917969 247.984375 L 90.726562 247.984375 C 60.707031 247.984375 36.289062 223.558594 36.289062 193.546875 C 36.289062 190.210938 38.992188 187.5 42.339844 187.5 L 66.53125 187.5 C 96.550781 187.5 120.96875 211.921875 120.96875 241.933594 C 120.96875 245.273438 118.265625 247.984375 114.917969 247.984375 Z M 48.816406 199.597656 C 51.757812 220.089844 69.429688 235.886719 90.726562 235.886719 L 108.441406 235.886719 C 105.503906 215.394531 87.828125 199.597656 66.53125 199.597656 Z M 48.816406 199.597656"/><path d="M 108.871094 241.933594 L 120.96875 241.933594 L 120.96875 296.371094 L 108.871094 296.371094 Z M 108.871094 241.933594"/></svg>